<svg width="24" height="17" viewBox="0 0 24 17" fill="none" xmlns="http://www.w3.org/2000/svg">
<g id="Group">
<path id="Vector" d="M22 0.5H2C0.89543 0.5 0 1.39543 0 2.5V14.5C0 15.6046 0.89543 16.5 2 16.5H22C23.1046 16.5 24 15.6046 24 14.5V2.5C24 1.39543 23.1046 0.5 22 0.5Z" fill="#016FD0"/>
<path id="Vector_2" fill-rule="evenodd" clip-rule="evenodd" d="M13.7641 13.8939V8.19246L23.9116 8.20156V9.77646L22.7387 11.0299L23.9116 12.2947V13.903H22.039L21.0438 12.8049L20.0557 13.9072L13.7641 13.8939Z" fill="#FFFFFE"/>
<path id="Vector_3" fill-rule="evenodd" clip-rule="evenodd" d="M14.4418 13.2688V8.81992H18.2141V9.8448H15.6632V10.5405H18.1533V11.5483H15.6632V12.2316H18.2141V13.2688H14.4418Z" fill="#016FD0"/>
<path id="Vector_4" fill-rule="evenodd" clip-rule="evenodd" d="M18.1953 13.2688L20.2826 11.0418L18.1952 8.82001H19.8108L21.0863 10.23L22.3654 8.82001H23.9116V8.85501L21.8687 11.0418L23.9116 13.2057V13.2688H22.3499L21.0518 11.8446L19.767 13.2688H18.1953Z" fill="#016FD0"/>
<path id="Vector_5" fill-rule="evenodd" clip-rule="evenodd" d="M14.2373 3.13196H16.6834L17.5425 5.08281V3.13196H20.5624L21.0831 4.59353L21.6057 3.13196H23.9116V8.83335H11.7251L14.2373 3.13196Z" fill="#FFFFFE"/>
<g id="Group_2">
<path id="Vector_6" fill-rule="evenodd" clip-rule="evenodd" d="M14.7005 3.75136L12.7265 8.19653H14.0804L14.4528 7.30636H16.4707L16.8429 8.19653H18.2305L16.2647 3.75136H14.7005ZM14.8701 6.30879L15.4621 4.89372L16.0537 6.30879H14.8701Z" fill="#016FD0"/>
<path id="Vector_7" fill-rule="evenodd" clip-rule="evenodd" d="M18.212 8.19574V3.75066L20.1151 3.7572L21.0944 6.48993L22.08 3.75066H23.9116V8.19574L22.733 8.20617V5.15282L21.6204 8.19574H20.5446L19.409 5.14239V8.19574H18.212Z" fill="#016FD0"/>
</g>
</g>
</svg>
