<svg width="24" height="17" viewBox="0 0 24 17" fill="none" xmlns="http://www.w3.org/2000/svg">
<g id="319">
<g id="New Icons">
<g id="Card Brands">
<g id="Color">
<g id="Discover">
<path id="shape" d="M21.9972 16.2499L21.9994 16.2499C22.9545 16.2581 23.7381 15.4773 23.75 14.5042L23.75 2.5063C23.7462 2.03569 23.5589 1.58617 23.2297 1.2568C22.9014 0.928269 22.4589 0.746149 21.9972 0.750071L2.00064 0.750062C1.54109 0.746149 1.09858 0.928269 0.770279 1.2568C0.441145 1.58617 0.253838 2.03569 0.250008 2.50426L0.25 14.4937C0.253838 14.9643 0.441145 15.4138 0.770279 15.7432C1.09858 16.0717 1.54109 16.2538 2.00277 16.2499H21.9972ZM21.9962 16.7499C21.9958 16.7499 21.9955 16.7499 21.9951 16.7499L21.9972 16.7499H21.9962Z" fill="white" stroke="black" stroke-opacity="0.2" stroke-width="0.5"/>
<path id="shape_2" d="M12.6124 16.4999H21.9973C22.524 16.5043 23.031 16.2993 23.4066 15.9299C23.7822 15.5605 23.9956 15.057 24 14.5303V12.1716C20.4562 14.206 16.6128 15.6668 12.6124 16.4999Z" fill="#F27712"/>
<path id="shape_3" d="M23.1724 9.79648H22.32L21.36 8.53027H21.269V9.79648H20.5738V6.65165H21.6C22.4028 6.65165 22.8662 6.98269 22.8662 7.57855C22.8662 8.06682 22.5766 8.38131 22.0552 8.48062L23.1724 9.79648ZM22.1462 7.60338C22.1462 7.29717 21.9145 7.13993 21.4841 7.13993H21.269V8.09165H21.4676C21.9145 8.09165 22.1462 7.92613 22.1462 7.60338ZM18.1407 6.65165H20.1103V7.18131H18.8359V7.88476H20.0607V8.42269H18.8359V9.2751H20.1103V9.80476H18.1407V6.65165ZM15.9062 9.87924L14.4 6.64338H15.1614L16.1131 8.762L17.0731 6.64338H17.8179L16.2952 9.87924H15.9228H15.9062ZM9.60828 9.87096C8.54897 9.87096 7.72138 9.15096 7.72138 8.21579C7.72138 7.30544 8.56552 6.56889 9.62483 6.56889C9.92276 6.56889 10.171 6.62682 10.4772 6.75924V7.48751C10.2454 7.25969 9.93336 7.13192 9.60828 7.13165C8.94621 7.13165 8.44138 7.61165 8.44138 8.21579C8.44138 8.85303 8.93794 9.3082 9.64138 9.3082C9.95587 9.3082 10.1959 9.20889 10.4772 8.96062V9.68889C10.1628 9.82131 9.89793 9.87096 9.60828 9.87096ZM7.50621 8.83648C7.50621 9.44889 7.00138 9.87096 6.27311 9.87096C5.74345 9.87096 5.36276 9.68889 5.04 9.2751L5.49518 8.88613C5.65242 9.16751 5.91725 9.3082 6.24828 9.3082C6.56276 9.3082 6.78621 9.11786 6.78621 8.86958C6.78621 8.72889 6.72001 8.62131 6.57932 8.53855C6.42505 8.46369 6.26442 8.40276 6.09932 8.35648C5.44552 8.14958 5.22207 7.92613 5.22207 7.48751C5.22207 6.97441 5.70207 6.58544 6.33104 6.58544C6.72828 6.58544 7.08414 6.70958 7.38207 6.94131L7.01794 7.3551C6.87361 7.19688 6.66933 7.10676 6.45518 7.10682C6.15725 7.10682 5.94207 7.25579 5.94207 7.45441C5.94207 7.61993 6.06621 7.71096 6.48 7.85165C7.27449 8.09993 7.50621 8.33165 7.50621 8.84476V8.83648ZM4.08828 6.65165H4.78345V9.80476H4.08828V6.65165ZM1.8538 9.80476H0.827591V6.65165H1.8538C2.97932 6.65165 3.75725 7.29717 3.75725 8.22407C3.75725 8.69579 3.52552 9.14269 3.12 9.44062C2.77242 9.68889 2.38345 9.80476 1.84552 9.80476H1.8538ZM2.66483 7.43786C2.43311 7.25579 2.16828 7.18958 1.71311 7.18958H1.52276V9.2751H1.71311C2.16 9.2751 2.44138 9.19234 2.66483 9.02682C2.90483 8.8282 3.04552 8.53027 3.04552 8.22407C3.04552 7.91786 2.90483 7.6282 2.66483 7.43786Z" fill="black" fill-opacity="0.5"/>
<path id="shape_4" d="M12.4138 6.56889C11.5035 6.56889 10.7586 7.29717 10.7586 8.19924C10.7586 9.15924 11.4704 9.87924 12.4138 9.87924C13.3407 9.87924 14.069 9.15096 14.069 8.22407C14.069 7.29717 13.349 6.56889 12.4138 6.56889Z" fill="#F27712"/>
</g>
</g>
</g>
</g>
</g>
</svg>
